{"title":"Kings Of Kombat 12 (MMA)","uid":10266754,"size":412441024,"categoryP":"video","categoryS":"tv_shows","magnet":"?xt=urn:btih:d9391d51ffa93109ec774a32825e69dee393b398&amp;dn=Kings+Of+Kombat+12+%28MMA%29&amp;tr=udp%3A%2F%2Ftracker.openbittorrent.com%3A80&amp;tr=udp%3A%2F%2Fopen.demonii.com%3A1337&amp;tr=udp%3A%2F%2Ftracker.coppersurfer.tk%3A6969&amp;tr=udp%3A%2F%2Fexodus.desync.com%3A6969","seeders":1,"leechers":1,"uploader":"Pyre8Storm","files":-1,"time":1401531114,"description":"8 man elimination.\n\nHeld at Dandenong (AUST) on 26th April 2014\n\nCaptured in standard definition (SD)\n\nThe quality is not the best, but Just thought I'd up this to while we're all \nwaiting for more UFC / Bellator.\n\n\nScreens:\n &lt;a href=&quot;\nhttp://bayimg.com/naOIKAAfH&quot; rel=&quot;nofollow&quot; target=&quot;_NEW&quot;&gt;\nhttp://bayimg.com/naOIKAAfH&lt;/a&gt;\n\n\n\nVideo\nID                                       : MPEG-4\nFormat                                   : AVC\nFormat/Info                              : Advanced Video Codec\nFormat profile                           : &lt;a class=&quot;__cf_email__&quot; href=&quot;/cdn-cgi/l/email-protection&quot; data-cfemail=&quot;9dd5f4faf5ddd1a9b3ac&quot;&gt;[email&amp;#160;protected]&lt;/a&gt;&lt;script cf-hash='f9e31' type=&quot;text/javascript&quot;&gt;\n/* &lt;![CDATA[ */!function(){try{var t=&quot;currentScript&quot;in document?document.currentScript:function(){for(var t=document.getElementsByTagName(&quot;script&quot;),e=t.length;e--;)if(t[e].getAttribute(&quot;cf-hash&quot;))return t[e]}();if(t&amp;&amp;t.previousSibling){var e,r,n,i,c=t.previousSibling,a=c.getAttribute(&quot;data-cfemail&quot;);if(a){for(e=&quot;&quot;,r=parseInt(a.substr(0,2),16),n=2;a.length-n;n+=2)i=parseInt(a.substr(n,2),16)^r,e+=String.fromCharCode(i);e=document.createTextNode(e),c.parentNode.replaceChild(e,c)}}}catch(u){}}();/* ]]&gt; */&lt;/script&gt;\nFormat settings, CABAC                   : Yes\nFormat settings, ReFrames                : 4 frames\nCodec ID                                 : avc1\nCodec ID/Info                            : Advanced Video Coding\nDuration                                 : 51mn 37s\nBit rate                                 : 929 Kbps\nWidth                                    : 720 pixels\nHeight                                   : 412 pixels\nDisplay aspect ratio                     : 16:9\nFrame rate mode                          : Constant\nFrame rate                               : 50.000 fps\nColor space                              : YUV\nChroma subsampling                       : 4:2:0\nBit depth                                : 8 bits\nScan type                                : Progressive\nBits/(Pixel*Frame)                       : 0.063\nStream size                              : 343 MiB (87%)\nWriting library                          : x264 core 119 r2106 07efeb4\n\nAudio\nID                                       : 2\nFormat                                   : AAC\nFormat/Info                              : Advanced Audio Codec\nFormat profile                           : LC\nCodec ID                                 : 40\nDuration                                 : 51mn 37s\nBit rate mode                            : Constant\nBit rate                                 : 128 Kbps\nChannel count                            : 2 channels\nChannel positions                        : Front: L R\nSampling rate                            : 48.0 KHz\nCompression mode                         : Lossy\nDelay relative to video                  : 40ms\nStream size                              : 47.3 MiB (12%)\n","torrent":{"xt":"urn:btih:d9391d51ffa93109ec774a32825e69dee393b398","amp;dn":"Kings+Of+Kombat+12+%28MMA%29","amp;tr":["udp%3A%2F%2Ftracker.openbittorrent.com%3A80","udp%3A%2F%2Fopen.demonii.com%3A1337","udp%3A%2F%2Ftracker.coppersurfer.tk%3A6969","udp%3A%2F%2Fexodus.desync.com%3A6969"],"infoHash":"d9391d51ffa93109ec774a32825e69dee393b398","infoHashBuffer":{"type":"Buffer","data":[217,57,29,81,255,169,49,9,236,119,74,50,130,94,105,222,227,147,179,152]},"announce":[],"urlList":[]}}